<svg width="174" height="58" viewBox="0 0 174 58" fill="none" xmlns="http://www.w3.org/2000/svg">
<rect x="0.724929" y="0.724929" width="172.533" height="56.5445" rx="7.97422" fill="black"/>
<rect x="0.724929" y="0.724929" width="172.533" height="56.5445" rx="7.97422" stroke="#A6A6A6" stroke-width="1.44986"/>
<path d="M25.8147 28.2167L11.729 43.5044C11.7303 43.5071 11.7303 43.5111 11.7316 43.5139C12.1643 45.1738 13.646 46.3955 15.4055 46.3955C16.1094 46.3955 16.7695 46.2007 17.3358 45.8598L17.3807 45.8327L33.2352 36.4775L25.8147 28.2167Z" fill="#EA4335"/>
<path d="M40.064 25.6132L40.0508 25.6038L33.2057 21.5464L25.4941 28.5639L33.2335 36.4756L40.0415 32.4589C41.2349 31.7986 42.0458 30.512 42.0458 29.0293C42.0458 27.5546 41.2468 26.2748 40.064 25.6132Z" fill="#FBBC04"/>
<path d="M11.7283 14.4885C11.6436 14.8077 11.5986 15.1433 11.5986 15.4896V42.5041C11.5986 42.8505 11.6436 43.186 11.7296 43.5039L26.2982 28.6072L11.7283 14.4885Z" fill="#4285F4"/>
<path d="M25.918 28.9971L33.2076 21.544L17.3716 12.1549C16.7961 11.8018 16.124 11.5989 15.4056 11.5989C13.6461 11.5989 12.1617 12.8233 11.7291 14.4846C11.7291 14.486 11.7278 14.4873 11.7278 14.4887L25.918 28.9971Z" fill="#34A853"/>
<path d="M57.617 21.365C56.5538 21.365 55.6694 21.1427 54.9638 20.6981C54.2679 20.2438 53.7459 19.6252 53.398 18.8423C53.0597 18.0593 52.8905 17.1653 52.8905 16.16C52.8905 15.4061 52.9823 14.7102 53.166 14.0722C53.3593 13.4343 53.6493 12.8785 54.0359 12.4049C54.4225 11.9216 54.9058 11.5495 55.4858 11.2885C56.0754 11.0179 56.7665 10.8825 57.5591 10.8825C58.313 10.8825 58.9702 10.9985 59.5309 11.2305C60.0915 11.4625 60.5506 11.7863 60.9082 12.2019C61.2755 12.6175 61.5317 13.1105 61.6767 13.6808H60.2993C60.2026 13.3425 60.0286 13.0525 59.7773 12.8109C59.526 12.5595 59.2119 12.3662 58.8349 12.2309C58.458 12.0956 58.0278 12.0279 57.5446 12.0279C56.9453 12.0279 56.433 12.1343 56.0077 12.3469C55.5824 12.5595 55.2344 12.8543 54.9638 13.2313C54.6932 13.5986 54.495 14.0336 54.3694 14.5362C54.2437 15.0291 54.1809 15.5607 54.1809 16.131C54.1809 16.885 54.3017 17.5712 54.5433 18.1898C54.785 18.8084 55.1571 19.3014 55.6597 19.6687C56.1624 20.036 56.81 20.2196 57.6026 20.2196C58.2598 20.2196 58.8204 20.1036 59.2844 19.8717C59.7483 19.63 60.106 19.2869 60.3573 18.8423C60.6086 18.388 60.7342 17.8467 60.7342 17.2184H57.3706V16.073H61.9376V16.9284C61.9376 17.8177 61.7636 18.5958 61.4157 19.2627C61.0677 19.9297 60.5699 20.4468 59.9223 20.8141C59.2844 21.1814 58.516 21.365 57.617 21.365ZM63.891 21.249V10.9985H70.7778V12.1439H65.1523V15.5946H70.2123V16.7545H65.1523V20.1036H70.7778V21.249H63.891ZM74.973 21.249V12.1439H71.6818V10.9985H79.5255V12.1439H76.2344V21.249H74.973ZM84.9026 21.249V10.9985H86.164V21.249H84.9026ZM90.9158 21.249V12.1439H87.6246V10.9985H95.4683V12.1439H92.1771V21.249H90.9158ZM105.108 21.365C104.045 21.365 103.155 21.1379 102.44 20.6836C101.725 20.2293 101.184 19.6059 100.816 18.8133C100.459 18.0207 100.28 17.1266 100.28 16.131C100.28 15.1258 100.459 14.2269 100.816 13.4343C101.184 12.6417 101.725 12.0183 102.44 11.564C103.155 11.1097 104.045 10.8825 105.108 10.8825C106.171 10.8825 107.056 11.1097 107.761 11.564C108.476 12.0183 109.013 12.6417 109.371 13.4343C109.738 14.2269 109.921 15.1258 109.921 16.131C109.921 17.1266 109.738 18.0207 109.371 18.8133C109.013 19.6059 108.476 20.2293 107.761 20.6836C107.056 21.1379 106.171 21.365 105.108 21.365ZM105.108 20.2196C105.92 20.2196 106.587 20.036 107.109 19.6687C107.631 19.2917 108.012 18.7939 108.254 18.1753C108.505 17.5567 108.631 16.8753 108.631 16.131C108.631 15.5704 108.559 15.0436 108.414 14.5507C108.278 14.0481 108.066 13.6083 107.776 13.2313C107.486 12.8543 107.118 12.5595 106.674 12.3469C106.229 12.1343 105.707 12.0279 105.108 12.0279C104.306 12.0279 103.639 12.2164 103.107 12.5934C102.585 12.9703 102.194 13.4681 101.933 14.0867C101.681 14.7053 101.556 15.3868 101.556 16.131C101.556 16.8656 101.681 17.5422 101.933 18.1608C102.184 18.7794 102.571 19.2772 103.093 19.6542C103.624 20.0311 104.296 20.2196 105.108 20.2196ZM111.875 21.249V10.9985H113.484L118.834 19.5382V10.9985H120.096V21.249H118.515L113.136 12.7384V21.249H111.875Z" fill="white"/>
<path d="M135.588 46.1412H137.949V30.1761H135.588V46.1412ZM156.858 35.9269L154.151 42.8488H154.07L151.26 35.9269H148.717L152.93 45.601L150.529 50.9827H152.99L159.484 35.9269H156.858ZM143.466 44.3277C142.691 44.3277 141.613 43.9382 141.613 42.9714C141.613 41.7403 142.956 41.2677 144.116 41.2677C145.154 41.2677 145.644 41.4938 146.274 41.8016C146.091 43.2805 144.829 44.3277 143.466 44.3277ZM143.751 35.5782C142.041 35.5782 140.269 36.3381 139.538 38.0226L141.633 38.9051C142.081 38.0226 142.915 37.734 143.791 37.734C145.012 37.734 146.254 38.4734 146.274 39.7889V39.9523C145.846 39.7058 144.931 39.3368 143.811 39.3368C141.552 39.3368 139.252 40.5896 139.252 42.9305C139.252 45.0671 141.104 46.4439 143.18 46.4439C144.768 46.4439 145.644 45.7249 146.193 44.882H146.274V46.1144H148.553V39.9932C148.553 37.1593 146.458 35.5782 143.751 35.5782ZM129.156 37.8706H125.797V32.3982H129.156C130.922 32.3982 131.924 33.8733 131.924 35.1338C131.924 36.3713 130.922 37.8706 129.156 37.8706ZM129.095 30.1761H123.437V46.1412H125.797V40.0928H129.095C131.713 40.0928 134.285 38.1797 134.285 35.1338C134.285 32.0879 131.713 30.1761 129.095 30.1761ZM98.2396 44.3302C96.6083 44.3302 95.2428 42.9522 95.2428 41.0596C95.2428 39.1465 96.6083 37.7468 98.2396 37.7468C99.8507 37.7468 101.114 39.1465 101.114 41.0596C101.114 42.9522 99.8507 44.3302 98.2396 44.3302ZM100.952 36.8209H100.869C100.339 36.1836 99.3204 35.6076 98.0359 35.6076C95.344 35.6076 92.8774 37.9932 92.8774 41.0596C92.8774 44.1042 95.344 46.4707 98.0359 46.4707C99.3204 46.4707 100.339 45.8947 100.869 45.2357H100.952V46.0186C100.952 48.0964 99.8507 49.2075 98.0764 49.2075C96.6285 49.2075 95.7313 48.1577 95.3643 47.2727L93.3052 48.1373C93.8962 49.5779 95.4668 51.3467 98.0764 51.3467C100.849 51.3467 103.194 49.7005 103.194 45.6891V35.9358H100.952V36.8209ZM104.826 46.1412H107.191V30.1748H104.826V46.1412ZM110.676 40.8744C110.616 38.7761 112.287 37.7059 113.49 37.7059C114.429 37.7059 115.223 38.1784 115.488 38.8578L110.676 40.8744ZM118.017 39.0635C117.569 37.8502 116.202 35.6076 113.409 35.6076C110.636 35.6076 108.332 37.8081 108.332 41.0391C108.332 44.0838 110.616 46.4707 113.673 46.4707C116.141 46.4707 117.569 44.9484 118.16 44.0633L116.325 42.8284C115.713 43.7338 114.877 44.3302 113.673 44.3302C112.471 44.3302 111.614 43.7747 111.064 42.6853L118.261 39.6803L118.017 39.0635ZM60.6764 37.2742V39.5781H66.1398C65.9766 40.8744 65.5488 41.8207 64.897 42.4784C64.101 43.2817 62.857 44.1668 60.6764 44.1668C57.3113 44.1668 54.6814 41.4299 54.6814 38.0354C54.6814 34.6396 57.3113 31.904 60.6764 31.904C62.4912 31.904 63.8163 32.6243 64.7945 33.5502L66.4056 31.9244C65.0388 30.6077 63.2252 29.5988 60.6764 29.5988C56.0685 29.5988 52.1946 33.3854 52.1946 38.0354C52.1946 42.6853 56.0685 46.4707 60.6764 46.4707C63.1632 46.4707 65.0388 45.6469 66.5069 44.1042C68.0167 42.5819 68.4849 40.4427 68.4849 38.7135C68.4849 38.1784 68.4444 37.6855 68.3622 37.2742H60.6764ZM74.6976 44.3302C73.0663 44.3302 71.659 42.9727 71.659 41.0391C71.659 39.0839 73.0663 37.7468 74.6976 37.7468C76.3276 37.7468 77.7349 39.0839 77.7349 41.0391C77.7349 42.9727 76.3276 44.3302 74.6976 44.3302ZM74.6976 35.6076C71.7197 35.6076 69.2936 37.8911 69.2936 41.0391C69.2936 44.1668 71.7197 46.4707 74.6976 46.4707C77.6742 46.4707 80.1003 44.1668 80.1003 41.0391C80.1003 37.8911 77.6742 35.6076 74.6976 35.6076ZM86.4838 44.3302C84.8525 44.3302 83.4452 42.9727 83.4452 41.0391C83.4452 39.0839 84.8525 37.7468 86.4838 37.7468C88.1151 37.7468 89.5211 39.0839 89.5211 41.0391C89.5211 42.9727 88.1151 44.3302 86.4838 44.3302ZM86.4838 35.6076C83.5072 35.6076 81.0811 37.8911 81.0811 41.0391C81.0811 44.1668 83.5072 46.4707 86.4838 46.4707C89.4604 46.4707 91.8865 44.1668 91.8865 41.0391C91.8865 37.8911 89.4604 35.6076 86.4838 35.6076Z" fill="white"/>
</svg>
