<svg width="177" height="58" viewBox="0 0 177 58" fill="none" xmlns="http://www.w3.org/2000/svg">
<rect x="0.724929" y="0.724929" width="175.433" height="56.5445" rx="7.97422" fill="black"/>
<rect x="0.724929" y="0.724929" width="175.433" height="56.5445" rx="7.97422" stroke="#A6A6A6" stroke-width="1.44986"/>
<path d="M35.818 30.1034C35.8356 28.7697 36.1985 27.4619 36.8729 26.3019C37.5473 25.1419 38.5112 24.1672 39.6751 23.4687C38.9357 22.4377 37.9603 21.5893 36.8263 20.9908C35.6924 20.3923 34.4311 20.0602 33.1426 20.0208C30.3942 19.7392 27.7297 21.6265 26.3291 21.6265C24.9014 21.6265 22.745 20.0488 20.4229 20.0954C18.921 20.1428 17.4572 20.5692 16.1742 21.3331C14.8912 22.0971 13.8327 23.1724 13.102 24.4544C9.93664 29.8049 12.2977 37.6685 15.3299 41.9935C16.847 44.1113 18.62 46.477 20.94 46.3931C23.2103 46.3011 24.0581 44.9797 26.7985 44.9797C29.5135 44.9797 30.3089 46.3931 32.676 46.3397C35.1121 46.3011 36.6469 44.2125 38.1108 42.0746C39.2008 40.5656 40.0396 38.8978 40.596 37.133C39.1807 36.5486 37.973 35.5704 37.1233 34.3203C36.2736 33.0702 35.8197 31.6036 35.818 30.1034Z" fill="white"/>
<path d="M31.3479 17.1764C32.6761 15.6197 33.3305 13.6188 33.1721 11.5986C31.1428 11.8067 29.2683 12.7536 27.9221 14.2506C27.2639 14.9819 26.7598 15.8327 26.4386 16.7543C26.1174 17.676 25.9854 18.6504 26.0502 19.6219C27.0652 19.6321 28.0693 19.4173 28.987 18.9937C29.9046 18.5701 30.7119 17.9487 31.3479 17.1764Z" fill="white"/>
<path d="M53.2784 19.9971V10.7716H56.6188C57.5844 10.7716 58.3935 10.963 59.0459 11.3458C59.707 11.7198 60.2029 12.2548 60.5334 12.9508C60.8727 13.638 61.0423 14.4514 61.0423 15.3909C61.0423 16.3304 60.8771 17.1437 60.5465 17.831C60.2159 18.5182 59.7201 19.0532 59.0589 19.436C58.4065 19.81 57.5975 19.9971 56.6319 19.9971H53.2784ZM54.6615 18.7313H56.5666C57.28 18.7313 57.8628 18.5922 58.3152 18.3138C58.7675 18.0267 59.1024 17.6353 59.3199 17.1394C59.5374 16.6348 59.6461 16.052 59.6461 15.3909C59.6461 14.7471 59.5374 14.173 59.3199 13.6684C59.1111 13.1639 58.7806 12.7681 58.3282 12.481C57.8846 12.1852 57.3104 12.0374 56.6058 12.0374H54.6615V18.7313ZM65.5136 20.0754C64.8002 20.0754 64.1957 19.9318 63.6998 19.6448C63.2039 19.349 62.8255 18.9358 62.5646 18.4051C62.3123 17.8745 62.1861 17.2612 62.1861 16.5653C62.1861 15.8606 62.3166 15.2473 62.5776 14.7254C62.8386 14.1947 63.217 13.7815 63.7128 13.4858C64.2087 13.1813 64.8133 13.0291 65.5266 13.0291C66.24 13.0291 66.8445 13.1813 67.3404 13.4858C67.8362 13.7815 68.2103 14.1947 68.4626 14.7254C68.7149 15.256 68.841 15.8737 68.841 16.5783C68.841 17.2655 68.7105 17.8745 68.4495 18.4051C68.1973 18.9358 67.8232 19.349 67.3273 19.6448C66.8402 19.9318 66.2356 20.0754 65.5136 20.0754ZM65.5136 18.8749C65.9833 18.8749 66.3617 18.7705 66.6488 18.5617C66.9446 18.3529 67.1621 18.0746 67.3012 17.7266C67.4404 17.3699 67.51 16.9828 67.51 16.5653C67.51 16.1477 67.4404 15.7649 67.3012 15.417C67.1621 15.069 66.9446 14.7906 66.6488 14.5819C66.3617 14.3644 65.9833 14.2556 65.5136 14.2556C65.0525 14.2556 64.6741 14.3644 64.3783 14.5819C64.0826 14.7906 63.8651 15.069 63.7259 15.417C63.5954 15.7649 63.5302 16.1477 63.5302 16.5653C63.5302 16.9915 63.5954 17.3786 63.7259 17.7266C63.8651 18.0746 64.0826 18.3529 64.3783 18.5617C64.6741 18.7705 65.0525 18.8749 65.5136 18.8749ZM71.6556 19.9971L69.5157 13.1204H71.0163L72.5299 18.5878L74.1219 13.1204H75.8051L77.3971 18.5878L78.8846 13.1204H80.3852L78.2452 19.9971H76.5359L74.9439 14.7384L73.365 19.9971H71.6556ZM81.3193 19.9971V13.1204H82.5981L82.6634 14.086C82.8373 13.8337 83.0461 13.6336 83.2897 13.4858C83.5333 13.3292 83.7943 13.2161 84.0726 13.1465C84.351 13.0682 84.6207 13.0291 84.8816 13.0291C85.5428 13.0291 86.0604 13.1726 86.4344 13.4597C86.8172 13.738 87.0869 14.1164 87.2435 14.5949C87.4087 15.0647 87.4914 15.5997 87.4914 16.1999V19.9971H86.1343V16.4739C86.1343 16.1955 86.1169 15.9215 86.0821 15.6518C86.0473 15.3822 85.9734 15.1429 85.8603 14.9342C85.7559 14.7167 85.6037 14.5471 85.4036 14.4253C85.2035 14.2948 84.9338 14.2295 84.5946 14.2295C84.177 14.2295 83.8247 14.3426 83.5376 14.5688C83.2506 14.795 83.0331 15.0995 82.8852 15.4822C82.7373 15.865 82.6634 16.2956 82.6634 16.774V19.9971H81.3193ZM89.0925 19.9971V10.7716H90.4365V19.9971H89.0925ZM95.1663 20.0754C94.453 20.0754 93.8484 19.9318 93.3525 19.6448C92.8567 19.349 92.4782 18.9358 92.2173 18.4051C91.965 17.8745 91.8389 17.2612 91.8389 16.5653C91.8389 15.8606 91.9693 15.2473 92.2303 14.7254C92.4913 14.1947 92.8697 13.7815 93.3656 13.4858C93.8614 13.1813 94.466 13.0291 95.1793 13.0291C95.8927 13.0291 96.4973 13.1813 96.9931 13.4858C97.489 13.7815 97.863 14.1947 98.1153 14.7254C98.3676 15.256 98.4937 15.8737 98.4937 16.5783C98.4937 17.2655 98.3632 17.8745 98.1022 18.4051C97.85 18.9358 97.4759 19.349 96.9801 19.6448C96.4929 19.9318 95.8883 20.0754 95.1663 20.0754ZM95.1663 18.8749C95.636 18.8749 96.0144 18.7705 96.3015 18.5617C96.5973 18.3529 96.8148 18.0746 96.954 17.7266C97.0931 17.3699 97.1627 16.9828 97.1627 16.5653C97.1627 16.1477 97.0931 15.7649 96.954 15.417C96.8148 15.069 96.5973 14.7906 96.3015 14.5819C96.0144 14.3644 95.636 14.2556 95.1663 14.2556C94.7052 14.2556 94.3268 14.3644 94.031 14.5819C93.7353 14.7906 93.5178 15.069 93.3786 15.417C93.2481 15.7649 93.1829 16.1477 93.1829 16.5653C93.1829 16.9915 93.2481 17.3786 93.3786 17.7266C93.5178 18.0746 93.7353 18.3529 94.031 18.5617C94.3268 18.7705 94.7052 18.8749 95.1663 18.8749ZM102.065 20.0754C101.752 20.0754 101.448 20.0362 101.152 19.9579C100.865 19.8709 100.608 19.7448 100.382 19.5795C100.156 19.4055 99.973 19.1924 99.8338 18.9401C99.7034 18.6791 99.6381 18.3747 99.6381 18.0267C99.6381 17.6092 99.7164 17.2655 99.873 16.9959C100.038 16.7175 100.256 16.5044 100.525 16.3565C100.795 16.1999 101.104 16.0912 101.452 16.0303C101.809 15.9607 102.178 15.9259 102.561 15.9259H104.244C104.244 15.5866 104.192 15.2908 104.088 15.0386C103.983 14.7776 103.818 14.5775 103.592 14.4383C103.374 14.2904 103.083 14.2165 102.718 14.2165C102.5 14.2165 102.291 14.2426 102.091 14.2948C101.9 14.3383 101.735 14.4122 101.595 14.5166C101.456 14.621 101.361 14.7602 101.308 14.9342H99.8991C99.9513 14.6036 100.069 14.3209 100.251 14.086C100.434 13.8424 100.66 13.6423 100.93 13.4858C101.2 13.3292 101.487 13.2161 101.791 13.1465C102.104 13.0682 102.422 13.0291 102.744 13.0291C103.735 13.0291 104.449 13.3205 104.884 13.9033C105.327 14.4775 105.549 15.2691 105.549 16.2782V19.9971H104.388L104.336 19.1228C104.136 19.3925 103.896 19.5969 103.618 19.7361C103.348 19.8753 103.079 19.9666 102.809 20.0101C102.539 20.0536 102.291 20.0754 102.065 20.0754ZM102.274 18.9401C102.665 18.9401 103.009 18.8749 103.305 18.7444C103.601 18.6052 103.831 18.4095 103.996 18.1572C104.162 17.8962 104.244 17.5918 104.244 17.2438V16.9567H103.018C102.765 16.9567 102.518 16.9654 102.274 16.9828C102.039 16.9915 101.822 17.0263 101.622 17.0872C101.43 17.1394 101.274 17.2307 101.152 17.3612C101.039 17.4917 100.982 17.6787 100.982 17.9223C100.982 18.1572 101.043 18.3486 101.165 18.4965C101.287 18.6444 101.448 18.7574 101.648 18.8357C101.848 18.9053 102.056 18.9401 102.274 18.9401ZM109.941 20.0754C109.254 20.0754 108.684 19.9231 108.232 19.6187C107.788 19.3055 107.453 18.8836 107.227 18.3529C107.01 17.8223 106.901 17.2264 106.901 16.5653C106.901 15.8954 107.014 15.2952 107.24 14.7645C107.466 14.2252 107.81 13.8033 108.271 13.4988C108.732 13.1856 109.315 13.0291 110.02 13.0291C110.281 13.0291 110.542 13.0595 110.803 13.1204C111.072 13.1813 111.32 13.277 111.546 13.4075C111.781 13.5293 111.981 13.6945 112.147 13.9033V10.7716H113.491V19.9971H112.199L112.147 19.0576C111.99 19.2924 111.794 19.4882 111.559 19.6448C111.333 19.7926 111.081 19.9014 110.803 19.971C110.524 20.0406 110.237 20.0754 109.941 20.0754ZM110.163 18.8749C110.607 18.8749 110.972 18.7661 111.259 18.5487C111.555 18.3312 111.777 18.0441 111.925 17.6874C112.073 17.3308 112.147 16.9437 112.147 16.5261C112.147 16.0999 112.073 15.7171 111.925 15.3778C111.786 15.0299 111.568 14.7558 111.272 14.5558C110.985 14.347 110.615 14.2426 110.163 14.2426C109.693 14.2426 109.319 14.3513 109.041 14.5688C108.763 14.7776 108.558 15.0603 108.428 15.417C108.306 15.7736 108.245 16.1651 108.245 16.5914C108.245 16.9045 108.28 17.2003 108.349 17.4787C108.419 17.7483 108.528 17.9919 108.676 18.2094C108.832 18.4182 109.032 18.5835 109.276 18.7052C109.519 18.8183 109.815 18.8749 110.163 18.8749ZM121.786 20.0754C121.073 20.0754 120.468 19.9318 119.972 19.6448C119.477 19.349 119.098 18.9358 118.837 18.4051C118.585 17.8745 118.459 17.2612 118.459 16.5653C118.459 15.8606 118.589 15.2473 118.85 14.7254C119.111 14.1947 119.49 13.7815 119.985 13.4858C120.481 13.1813 121.086 13.0291 121.799 13.0291C122.513 13.0291 123.117 13.1813 123.613 13.4858C124.109 13.7815 124.483 14.1947 124.735 14.7254C124.987 15.256 125.114 15.8737 125.114 16.5783C125.114 17.2655 124.983 17.8745 124.722 18.4051C124.47 18.9358 124.096 19.349 123.6 19.6448C123.113 19.9318 122.508 20.0754 121.786 20.0754ZM121.786 18.8749C122.256 18.8749 122.634 18.7705 122.921 18.5617C123.217 18.3529 123.435 18.0746 123.574 17.7266C123.713 17.3699 123.783 16.9828 123.783 16.5653C123.783 16.1477 123.713 15.7649 123.574 15.417C123.435 15.069 123.217 14.7906 122.921 14.5819C122.634 14.3644 122.256 14.2556 121.786 14.2556C121.325 14.2556 120.947 14.3644 120.651 14.5819C120.355 14.7906 120.138 15.069 119.999 15.417C119.868 15.7649 119.803 16.1477 119.803 16.5653C119.803 16.9915 119.868 17.3786 119.999 17.7266C120.138 18.0746 120.355 18.3529 120.651 18.5617C120.947 18.7705 121.325 18.8749 121.786 18.8749ZM126.493 19.9971V13.1204H127.772L127.837 14.086C128.011 13.8337 128.22 13.6336 128.463 13.4858C128.707 13.3292 128.968 13.2161 129.246 13.1465C129.525 13.0682 129.794 13.0291 130.055 13.0291C130.716 13.0291 131.234 13.1726 131.608 13.4597C131.991 13.738 132.26 14.1164 132.417 14.5949C132.582 15.0647 132.665 15.5997 132.665 16.1999V19.9971H131.308V16.4739C131.308 16.1955 131.29 15.9215 131.256 15.6518C131.221 15.3822 131.147 15.1429 131.034 14.9342C130.929 14.7167 130.777 14.5471 130.577 14.4253C130.377 14.2948 130.107 14.2295 129.768 14.2295C129.351 14.2295 128.998 14.3426 128.711 14.5688C128.424 14.795 128.207 15.0995 128.059 15.4822C127.911 15.865 127.837 16.2956 127.837 16.774V19.9971H126.493ZM140.744 19.9971C140.204 19.9971 139.765 19.9231 139.426 19.7752C139.086 19.6187 138.834 19.3751 138.669 19.0445C138.512 18.7139 138.434 18.2833 138.434 17.7527V14.3209H137.351V13.1204H138.434V11.137H139.778V13.1204H141.514V14.3209H139.778V17.5831C139.778 17.9919 139.852 18.3007 140 18.5095C140.148 18.7096 140.457 18.8096 140.926 18.8096H141.461V19.9971H140.744ZM142.664 19.9971V10.7716H144.008V14.086C144.19 13.8511 144.399 13.6554 144.634 13.4988C144.878 13.3422 145.139 13.2248 145.417 13.1465C145.695 13.0682 145.974 13.0291 146.252 13.0291C146.913 13.0291 147.431 13.1726 147.805 13.4597C148.179 13.738 148.444 14.1164 148.601 14.5949C148.757 15.0734 148.836 15.6127 148.836 16.2129V19.9971H147.479V16.5261C147.479 16.2477 147.457 15.9737 147.413 15.704C147.379 15.4344 147.309 15.1908 147.205 14.9733C147.1 14.7471 146.939 14.5688 146.722 14.4383C146.513 14.2991 146.23 14.2295 145.874 14.2295C145.534 14.2295 145.243 14.3035 144.999 14.4514C144.764 14.5992 144.573 14.7993 144.425 15.0516C144.286 15.2952 144.182 15.5649 144.112 15.8606C144.042 16.1477 144.008 16.4348 144.008 16.7218V19.9971H142.664ZM153.464 20.0754C152.742 20.0754 152.137 19.9275 151.65 19.6317C151.163 19.3359 150.793 18.9271 150.541 18.4051C150.298 17.8745 150.176 17.2655 150.176 16.5783C150.176 15.8824 150.302 15.2691 150.554 14.7384C150.815 14.2078 151.189 13.7902 151.676 13.4858C152.172 13.1813 152.768 13.0291 153.464 13.0291C153.995 13.0291 154.456 13.1291 154.847 13.3292C155.239 13.5206 155.561 13.7815 155.813 14.1121C156.074 14.4427 156.265 14.8124 156.387 15.2212C156.509 15.6214 156.561 16.039 156.544 16.4739C156.544 16.5696 156.539 16.6609 156.531 16.7479C156.522 16.8349 156.513 16.9263 156.504 17.022H151.533C151.559 17.3699 151.646 17.6874 151.794 17.9745C151.95 18.2616 152.168 18.4921 152.446 18.6661C152.725 18.8314 153.068 18.914 153.477 18.914C153.703 18.914 153.921 18.8879 154.13 18.8357C154.347 18.7748 154.538 18.6835 154.704 18.5617C154.878 18.4312 154.999 18.2659 155.069 18.0659H156.426C156.313 18.5269 156.109 18.9097 155.813 19.2141C155.526 19.5099 155.173 19.7274 154.756 19.8666C154.347 20.0058 153.916 20.0754 153.464 20.0754ZM151.559 15.952H155.213C155.204 15.6127 155.126 15.3126 154.978 15.0516C154.83 14.7819 154.625 14.5732 154.364 14.4253C154.103 14.2687 153.79 14.1904 153.425 14.1904C153.025 14.1904 152.69 14.273 152.42 14.4383C152.159 14.6036 151.955 14.8211 151.807 15.0908C151.668 15.3517 151.585 15.6388 151.559 15.952Z" fill="white"/>
<path d="M52.378 44.9971L59.346 26.5462H62.9214L69.8633 44.9971H66.8882L65.5311 41.2912H56.7102L55.3531 44.9971H52.378ZM57.6236 38.812H64.6177L61.1206 29.182L57.6236 38.812ZM70.9981 50.0078V31.2437H73.5556L73.6861 33.201C74.1733 32.4877 74.8083 31.957 75.5912 31.6091C76.3741 31.2437 77.2267 31.061 78.1488 31.061C79.5232 31.061 80.6541 31.3742 81.5414 32.0005C82.4287 32.6095 83.0899 33.4533 83.5248 34.532C83.9598 35.5933 84.1773 36.7851 84.1773 38.1073C84.1773 39.4644 83.9511 40.6736 83.4987 41.7349C83.0638 42.7962 82.3853 43.6313 81.4631 44.2402C80.5584 44.8492 79.4101 45.1537 78.0183 45.1537C77.3571 45.1537 76.7482 45.0841 76.1915 44.9449C75.6521 44.8057 75.1737 44.6056 74.7561 44.3446C74.3559 44.0663 73.9993 43.7444 73.6861 43.379V50.0078H70.9981ZM77.679 42.7527C78.6185 42.7527 79.3666 42.5439 79.9234 42.1264C80.4801 41.6914 80.8803 41.1259 81.1239 40.43C81.3675 39.7341 81.4892 38.9773 81.4892 38.1595C81.4892 37.307 81.3588 36.5328 81.0978 35.8369C80.8542 35.1235 80.4453 34.5581 79.8712 34.1405C79.3145 33.7056 78.5663 33.4881 77.6268 33.4881C76.7743 33.4881 76.0523 33.7056 75.4607 34.1405C74.8692 34.5581 74.4168 35.1235 74.1037 35.8369C73.8079 36.5502 73.66 37.3244 73.66 38.1595C73.66 39.0121 73.7992 39.795 74.0776 40.5083C74.3733 41.2042 74.817 41.7523 75.4085 42.1524C76.0175 42.5526 76.7743 42.7527 77.679 42.7527ZM86.2707 50.0078V31.2437H88.8283L88.9588 33.201C89.4459 32.4877 90.081 31.957 90.8639 31.6091C91.6468 31.2437 92.4993 31.061 93.4214 31.061C94.7959 31.061 95.9268 31.3742 96.8141 32.0005C97.7014 32.6095 98.3625 33.4533 98.7975 34.532C99.2325 35.5933 99.4499 36.7851 99.4499 38.1073C99.4499 39.4644 99.2238 40.6736 98.7714 41.7349C98.3365 42.7962 97.6579 43.6313 96.7358 44.2402C95.8311 44.8492 94.6828 45.1537 93.2909 45.1537C92.6298 45.1537 92.0209 45.0841 91.4641 44.9449C90.9248 44.8057 90.4463 44.6056 90.0288 44.3446C89.6286 44.0663 89.2719 43.7444 88.9588 43.379V50.0078H86.2707ZM92.9517 42.7527C93.8912 42.7527 94.6393 42.5439 95.1961 42.1264C95.7528 41.6914 96.153 41.1259 96.3965 40.43C96.6401 39.7341 96.7619 38.9773 96.7619 38.1595C96.7619 37.307 96.6314 36.5328 96.3704 35.8369C96.1269 35.1235 95.718 34.5581 95.1439 34.1405C94.5871 33.7056 93.839 33.4881 92.8995 33.4881C92.047 33.4881 91.3249 33.7056 90.7334 34.1405C90.1419 34.5581 89.6895 35.1235 89.3763 35.8369C89.0806 36.5502 88.9327 37.3244 88.9327 38.1595C88.9327 39.0121 89.0719 39.795 89.3502 40.5083C89.646 41.2042 90.0897 41.7523 90.6812 42.1524C91.2901 42.5526 92.047 42.7527 92.9517 42.7527ZM115.305 45.2058C114.104 45.2058 112.973 45.0319 111.912 44.6839C110.851 44.3359 109.955 43.7705 109.224 42.9876C108.493 42.2046 108.006 41.1694 107.762 39.882H110.607C110.833 40.6127 111.199 41.1868 111.703 41.6044C112.208 42.0046 112.791 42.2829 113.452 42.4395C114.13 42.5961 114.809 42.6744 115.487 42.6744C116.131 42.6744 116.731 42.5874 117.288 42.4134C117.862 42.2394 118.332 41.9524 118.697 41.5522C119.063 41.152 119.245 40.6301 119.245 39.9864C119.245 39.4992 119.15 39.099 118.958 38.7859C118.767 38.4727 118.497 38.2204 118.149 38.0291C117.819 37.8203 117.419 37.655 116.949 37.5332C116.409 37.3592 115.827 37.2113 115.2 37.0895C114.591 36.9678 113.982 36.8286 113.373 36.672C112.782 36.5154 112.225 36.3153 111.703 36.0717C111.268 35.8978 110.842 35.689 110.424 35.4454C110.024 35.1844 109.676 34.88 109.381 34.532C109.085 34.1666 108.841 33.7404 108.65 33.2532C108.476 32.7661 108.389 32.2093 108.389 31.583C108.389 30.7479 108.519 30.0345 108.78 29.443C109.059 28.8515 109.415 28.3556 109.85 27.9554C110.303 27.5553 110.816 27.2421 111.39 27.0159C111.982 26.7724 112.599 26.5984 113.243 26.494C113.887 26.3896 114.513 26.3374 115.122 26.3374C116.235 26.3374 117.262 26.5114 118.201 26.8593C119.141 27.2073 119.915 27.7641 120.524 28.5296C121.15 29.2777 121.49 30.2694 121.542 31.5047H118.854C118.784 30.8436 118.558 30.3216 118.175 29.9388C117.81 29.5387 117.349 29.2603 116.792 29.1037C116.235 28.9297 115.644 28.8428 115.018 28.8428C114.565 28.8428 114.113 28.8862 113.661 28.9732C113.208 29.0428 112.791 29.182 112.408 29.3908C112.042 29.5822 111.747 29.8432 111.521 30.1737C111.312 30.5043 111.207 30.9131 111.207 31.4003C111.207 31.8179 111.294 32.1919 111.468 32.5225C111.642 32.8357 111.886 33.1053 112.199 33.3315C112.53 33.5403 112.895 33.723 113.295 33.8796C114.026 34.1579 114.826 34.3754 115.696 34.532C116.566 34.6712 117.384 34.8713 118.149 35.1322C118.706 35.3062 119.228 35.5237 119.715 35.7847C120.202 36.0282 120.62 36.3327 120.968 36.6981C121.316 37.046 121.585 37.4636 121.777 37.9508C121.968 38.4205 122.064 38.9686 122.064 39.5949C122.064 40.6214 121.881 41.5 121.516 42.2307C121.15 42.9441 120.655 43.5182 120.028 43.9532C119.402 44.3881 118.68 44.71 117.862 44.9188C117.044 45.1102 116.192 45.2058 115.305 45.2058ZM129.767 45.1537C128.288 45.1537 127.227 44.7535 126.583 43.9532C125.957 43.1355 125.643 41.9959 125.643 40.5344V33.6447H123.451V31.2437H125.643V27.2508H128.332V31.2437H132.533V33.6447H128.332V40.0908C128.332 40.5779 128.375 41.0216 128.462 41.4217C128.566 41.8219 128.758 42.1351 129.036 42.3612C129.315 42.5874 129.715 42.7092 130.237 42.7266C130.637 42.7266 130.985 42.657 131.281 42.5178C131.594 42.3786 131.846 42.222 132.037 42.0481L133.081 44.0576C132.751 44.3185 132.403 44.536 132.037 44.71C131.689 44.8666 131.324 44.9797 130.941 45.0493C130.558 45.1189 130.167 45.1537 129.767 45.1537ZM140.471 45.1537C139.044 45.1537 137.835 44.8666 136.844 44.2924C135.852 43.7009 135.095 42.8745 134.573 41.8132C134.068 40.7519 133.816 39.5253 133.816 38.1334C133.816 36.7242 134.077 35.4976 134.599 34.4537C135.121 33.3924 135.878 32.566 136.87 31.9744C137.861 31.3655 139.071 31.061 140.497 31.061C141.924 31.061 143.133 31.3655 144.125 31.9744C145.116 32.566 145.865 33.3924 146.369 34.4537C146.874 35.515 147.126 36.7503 147.126 38.1595C147.126 39.534 146.865 40.7519 146.343 41.8132C145.838 42.8745 145.09 43.7009 144.099 44.2924C143.124 44.8666 141.915 45.1537 140.471 45.1537ZM140.471 42.7527C141.411 42.7527 142.167 42.5439 142.742 42.1264C143.333 41.7088 143.768 41.152 144.046 40.4561C144.325 39.7428 144.464 38.9686 144.464 38.1334C144.464 37.2983 144.325 36.5328 144.046 35.8369C143.768 35.1409 143.333 34.5842 142.742 34.1666C142.167 33.7317 141.411 33.5142 140.471 33.5142C139.549 33.5142 138.792 33.7317 138.201 34.1666C137.609 34.5842 137.174 35.1409 136.896 35.8369C136.635 36.5328 136.504 37.2983 136.504 38.1334C136.504 38.986 136.635 39.7602 136.896 40.4561C137.174 41.152 137.609 41.7088 138.201 42.1264C138.792 42.5439 139.549 42.7527 140.471 42.7527ZM149.203 44.9971V31.2437H151.735L151.865 33.2271C152.213 32.6878 152.613 32.2615 153.065 31.9483C153.518 31.6352 154.014 31.409 154.553 31.2698C155.092 31.1306 155.658 31.061 156.249 31.061C156.406 31.061 156.554 31.061 156.693 31.061C156.832 31.061 156.963 31.061 157.084 31.061V33.6447H156.249C155.258 33.6447 154.431 33.8448 153.77 34.2449C153.126 34.6451 152.648 35.2018 152.335 35.9152C152.039 36.6285 151.891 37.4462 151.891 38.3683V44.9971H149.203ZM164.235 45.1537C162.791 45.1537 161.582 44.8579 160.608 44.2663C159.634 43.6748 158.894 42.8571 158.39 41.8132C157.902 40.7519 157.659 39.534 157.659 38.1595C157.659 36.7677 157.911 35.5411 158.416 34.4798C158.938 33.4185 159.686 32.5834 160.66 31.9744C161.652 31.3655 162.843 31.061 164.235 31.061C165.297 31.061 166.219 31.2611 167.002 31.6613C167.785 32.044 168.428 32.566 168.933 33.2271C169.455 33.8883 169.838 34.6277 170.081 35.4454C170.325 36.2457 170.429 37.0808 170.394 37.9508C170.394 38.1421 170.386 38.3248 170.368 38.4988C170.351 38.6728 170.333 38.8555 170.316 39.0469H160.373C160.425 39.7428 160.599 40.3778 160.895 40.952C161.208 41.5261 161.643 41.9872 162.2 42.3351C162.756 42.6657 163.444 42.831 164.261 42.831C164.714 42.831 165.149 42.7788 165.566 42.6744C166.001 42.5526 166.384 42.3699 166.715 42.1264C167.063 41.8654 167.306 41.5348 167.445 41.1346H170.159C169.933 42.0568 169.524 42.8223 168.933 43.4312C168.359 44.0228 167.654 44.4577 166.819 44.7361C166.001 45.0145 165.14 45.1537 164.235 45.1537ZM160.425 36.9069H167.732C167.715 36.2283 167.558 35.6281 167.263 35.1061C166.967 34.5668 166.558 34.1492 166.036 33.8535C165.514 33.5403 164.888 33.3837 164.157 33.3837C163.357 33.3837 162.687 33.549 162.148 33.8796C161.626 34.2101 161.217 34.6451 160.921 35.1844C160.643 35.7064 160.477 36.2805 160.425 36.9069Z" fill="white"/>
</svg>
