<svg width="378" height="378" viewBox="0 0 378 378" fill="none" xmlns="http://www.w3.org/2000/svg">
<g filter="url(#filter0_d_42_3169)">
<path d="M188.929 244.925C222.064 244.925 248.925 218.064 248.925 184.93C248.925 151.795 222.064 124.934 188.929 124.934C155.795 124.934 128.934 151.795 128.934 184.93C128.934 218.064 155.795 244.925 188.929 244.925Z" fill="url(#paint0_linear_42_3169)"/>
<path d="M188.929 259.859C178.816 259.859 169.003 257.877 159.762 253.968C150.839 250.194 142.826 244.792 135.946 237.912C129.066 231.032 123.664 223.02 119.89 214.097C115.982 204.856 114 195.043 114 184.929C114 174.816 115.982 165.003 119.89 155.762C123.664 146.839 129.066 138.826 135.946 131.946C142.826 125.066 150.839 119.664 159.762 115.89C169.002 111.982 178.816 110 188.929 110C199.043 110 208.856 111.982 218.097 115.89C227.02 119.664 235.032 125.066 241.912 131.946C248.792 138.826 254.194 146.839 257.969 155.762C261.877 165.003 263.859 174.816 263.859 184.929C263.859 195.043 261.877 204.856 257.969 214.097C254.195 223.02 248.792 231.032 241.912 237.912C235.032 244.792 227.02 250.195 218.097 253.969C208.856 257.877 199.043 259.859 188.929 259.859ZM188.929 118.733C179.991 118.733 171.322 120.483 163.164 123.933C155.282 127.267 148.202 132.041 142.121 138.122C136.041 144.202 131.267 151.282 127.933 159.164C124.482 167.322 122.733 175.991 122.733 184.93C122.733 193.868 124.482 202.537 127.933 210.695C131.267 218.577 136.041 225.657 142.121 231.737C148.202 237.818 155.282 242.591 163.164 245.925C171.322 249.376 179.991 251.126 188.929 251.126C197.868 251.126 206.536 249.376 214.695 245.925C222.577 242.591 229.656 237.818 235.737 231.737C241.818 225.656 246.591 218.577 249.925 210.695C253.376 202.537 255.125 193.868 255.125 184.93C255.125 175.991 253.376 167.323 249.925 159.164C246.591 151.282 241.818 144.202 235.737 138.122C229.656 132.041 222.577 127.267 214.695 123.933C206.536 120.483 197.868 118.733 188.929 118.733Z" fill="url(#paint1_linear_42_3169)"/>
<path d="M178.187 213.574C177.032 213.574 175.921 213.116 175.1 212.295L157.284 194.48C155.579 192.775 155.579 190.009 157.284 188.304C158.989 186.599 161.754 186.599 163.459 188.304L177.845 202.69L214.092 157.905C215.609 156.03 218.358 155.74 220.233 157.258C222.107 158.775 222.397 161.524 220.88 163.399L181.582 211.954C180.803 212.916 179.653 213.503 178.417 213.568C178.34 213.572 178.264 213.574 178.187 213.574Z" fill="white"/>
</g>
<defs>
<filter id="filter0_d_42_3169" x="0" y="0" width="377.859" height="377.859" filterUnits="userSpaceOnUse" color-interpolation-filters="sRGB">
<feFlood flood-opacity="0" result="BackgroundImageFix"/>
<feColorMatrix in="SourceAlpha" type="matrix" values="0 0 0 0 0 0 0 0 0 0 0 0 0 0 0 0 0 0 127 0" result="hardAlpha"/>
<feOffset dy="4"/>
<feGaussianBlur stdDeviation="57"/>
<feComposite in2="hardAlpha" operator="out"/>
<feColorMatrix type="matrix" values="0 0 0 0 0.272516 0 0 0 0 0.860577 0 0 0 0 0 0 0 0 0.4 0"/>
<feBlend mode="normal" in2="BackgroundImageFix" result="effect1_dropShadow_42_3169"/>
<feBlend mode="normal" in="SourceGraphic" in2="effect1_dropShadow_42_3169" result="shape"/>
</filter>
<linearGradient id="paint0_linear_42_3169" x1="188.93" y1="112.864" x2="188.93" y2="262.633" gradientUnits="userSpaceOnUse">
<stop stop-color="#96D466"/>
<stop offset="1" stop-color="#0EA300"/>
</linearGradient>
<linearGradient id="paint1_linear_42_3169" x1="188.929" y1="112.864" x2="188.929" y2="262.723" gradientUnits="userSpaceOnUse">
<stop stop-color="#96D466"/>
<stop offset="1" stop-color="#089D00"/>
</linearGradient>
</defs>
</svg>
